<?xml version="1.0" encoding="utf-8"?>
<!-- Generator: Adobe Illustrator 16.0.0, SVG Export Plug-In . SVG Version: 6.00 Build 0)  -->
<!DOCTYPE svg PUBLIC "-//W3C//DTD SVG 1.1//EN" "http://www.w3.org/Graphics/SVG/1.1/DTD/svg11.dtd">
<svg version="1.1" id="Слой_1" xmlns="http://www.w3.org/2000/svg" xmlns:xlink="http://www.w3.org/1999/xlink" x="0px" y="0px" width="100%" height="100%" viewBox="0 0 512 512" enable-background="new 0 0 512 512" xml:space="preserve" preserveAspectRatio="none">
<g id="_x33__head_x2C__brain_x2C__storm_x2C__lightning_x2C__cloud_x2C__idea_x2C__creative">
	<g>
		<g>
			<path fill="#EAC6BB" d="M370.822,27.399C243.022-38.39,46.679,40.296,84.886,204.991l-52.713,94.991l31.978,15.988l-6.246,43.219
				l9.041,8.994l-5.293,11.741l10.492,7.995c-15.988,47.965-10.102,80.021,111.92,63.954v55.96h223.841
				c0,0-22.875-110.999,10.523-158.152C451.827,302.543,560.765,125.189,370.822,27.399z"/>
		</g>
	</g>
	<g opacity="0.2">
		<g>
			<path d="M168.076,451.874c-17.815,2.342-33.086,3.638-46.24,4.028c12.682,0.438,27.976-0.234,46.24-2.154V451.874z"/>
		</g>
		<g>
			<path d="M370.822,27.399C338.119,10.563,300.927,3.245,264.319,4.354c31.338,1.179,62.565,8.658,90.514,23.046
				c189.943,97.79,81.005,275.144,47.607,322.282c-33.398,47.153-10.524,158.152-10.524,158.152h15.989
				c0,0-22.875-110.999,10.523-158.152C451.827,302.543,560.765,125.189,370.822,27.399z"/>
		</g>
	</g>
	<g opacity="0.5">
		<g>
			<path fill="#FFFFFF" d="M88.133,387.92l-10.493-7.995l5.293-11.741l-9.04-8.994l6.245-43.219l-31.977-15.988l52.712-94.991
				C72.445,82.446,173.881,7.578,280.309,4.354C168.361,0.142,55.036,76.317,84.886,204.991l-52.713,94.991l31.978,15.988
				l-6.246,43.219l9.041,8.994l-5.293,11.741l10.492,7.995c-13.654,40.955-11.289,70.293,65.68,67.982
				C76.583,453.779,75.494,425.83,88.133,387.92z"/>
		</g>
		<g>
			<path fill="#FFFFFF" d="M184.064,453.748v54.086h15.989v-55.96C194.456,452.607,189.182,453.209,184.064,453.748z"/>
		</g>
	</g>
	<g>
		<path fill="#D770AD" d="M399.989,215.808l-75.931,26.282c0,0,23.562,43.067,55.866,33.909c2.295-0.655,4.793-1.358,7.354-2.482
			c3.599-1.515,6.37-3.669,8.876-5.512C412.401,256.01,399.989,215.808,399.989,215.808z"/>
	</g>
	<g>
		<polygon fill="#FFCE54" points="248.019,260.007 279.996,260.007 192.059,331.959 232.03,275.999 200.053,275.999 
			252.016,223.748 273.478,234.888 		"/>
	</g>
	<g>
		<polygon fill="#FFCE54" points="248.019,260.007 279.996,260.007 192.059,331.959 232.03,275.999 200.053,275.999 
			252.016,223.748 257.435,218.56 273.478,234.888 		"/>
	</g>
	<g>
		<g>
			<path fill="#EC87C0" d="M189.319,126.98C192.598,97.482,217.541,74.62,248,74.62c4.235,0,16.258,17.457,20.255,18.256
				l59.309-5.547c51.112-11.191,72.426,16.629,72.426,39.651c0,4.157-2.046,11.258-3.084,15.017
				c11.593,7.913,20.595,19.541,20.595,34.569c0,1.92-0.484,8.58-0.727,10.5c0,0-1.358,20.228-29.971,39.215
				c-28.612,18.986-82.925,9.185-93.722-5.208c-10.789,5.516-71.465-0.48-82.176-11.269v-0.082
				c-11.754,0.558-23.663-3.755-32.696-12.792c-17.109-17.105-17.109-44.769,0-61.874C181.566,131.7,185.321,128.979,189.319,126.98
				z"/>
		</g>
	</g>
	<g opacity="0.2">
		<g>
			<path d="M189.319,126.98C192.598,97.482,217.541,74.62,248,74.62c4.235,0,16.258,17.457,20.255,18.256l59.309-5.547
				c51.112-11.191,72.426,16.629,72.426,39.651c0,4.157-2.046,11.258-3.084,15.017c11.593,7.913,20.595,19.541,20.595,34.569
				c0,1.92-0.484,8.58-0.727,10.5c0,0-1.358,20.228-29.971,39.215c-28.612,18.986-82.925,9.185-93.722-5.208
				c-10.789,5.516-71.465-0.48-82.176-11.269v-0.082c-11.754,0.558-23.663-3.755-32.696-12.792
				c-17.109-17.105-17.109-44.769,0-61.874C181.566,131.7,185.321,128.979,189.319,126.98z"/>
		</g>
	</g>
	<g opacity="0.2">
		<g>
			<path d="M396.905,141.997c1.038-3.759,3.084-10.859,3.084-15.017c0-20.829-17.527-45.479-58.701-41.724
				C371.04,88.372,384,109.083,384,126.98c0,4.157-2.045,11.258-3.083,15.017c11.593,7.913,20.594,19.541,20.594,34.569
				c0,1.92-0.483,8.58-0.726,10.5c0,0-1.358,20.228-29.971,39.215c-9.313,6.183-21.368,9.274-33.741,10.184
				c17.495,1.21,36.396-1.335,49.729-10.184c28.612-18.987,29.971-39.215,29.971-39.215c0.242-1.92,0.727-8.58,0.727-10.5
				C417.5,161.538,408.498,149.91,396.905,141.997z"/>
		</g>
	</g>
	<g>
		<g>
			<path fill="#EC87C0" d="M155.125,126.98c3.279-29.498,28.222-52.361,58.681-52.361c4.235,0,8.311,0.398,12.308,1.199l0.082,0.082
				c10.633-14.392,27.82-23.745,47.33-23.745c24.139,0,44.921,14.388,54.039,35.174c22.461,1.921,40.05,20.626,40.05,43.648
				c0,4.157-0.562,8.154-1.601,11.914c11.594,7.913,19.111,21.184,19.111,36.212c0,1.921-0.164,3.837-0.406,5.758
				c0,0,15.833,27.258,0.563,46.846c-20.384,26.223-52.681,6.955-52.681,6.955c-7.917,3.916-16.871,6.156-26.302,6.156
				c-19.424,0-36.614-9.353-47.408-23.745c-10.792,5.516-27.979,6.238-40.131,6.238c-16.469,0-31.337-6.718-42.048-17.507v-0.082
				c-11.754,0.558-23.663-3.755-32.696-12.792c-17.109-17.105-17.109-44.769,0-61.874C147.372,131.7,151.127,128.979,155.125,126.98
				z"/>
		</g>
	</g>
	<g opacity="0.2">
		<g>
			<path d="M384.718,184.861c0.242-1.921,0.406-3.837,0.406-5.758c0-15.028-7.518-28.3-19.111-36.212
				c1.039-3.759,1.601-7.756,1.601-11.914c0-23.022-17.589-41.728-40.05-43.648c-9.118-20.786-29.9-35.174-54.039-35.174
				c-2.748,0-5.426,0.23-8.072,0.585c20.696,2.764,38.02,16.122,46.123,34.588c22.461,1.921,40.05,20.626,40.05,43.648
				c0,4.157-0.563,8.154-1.601,11.914c11.594,7.913,19.111,21.184,19.111,36.212c0,1.921-0.164,3.837-0.406,5.758
				c0,0,15.833,27.258,0.563,46.846c-6.02,7.744-13.076,11.456-20.033,12.936c10.938,2.062,25.154,1.043,36.021-12.936
				C400.551,212.119,384.718,184.861,384.718,184.861z"/>
		</g>
	</g>
	<g opacity="0.3">
		<g>
			<path fill="#FFFFFF" d="M192.699,209.805v-0.082c-11.753,0.558-23.663-3.755-32.695-12.792
				c-17.109-17.105-17.109-44.769,0-61.874c3.357-3.356,7.112-6.077,11.109-8.076c2.99-26.906,24.029-48.235,50.815-51.783
				c-2.658-0.344-5.348-0.578-8.123-0.578c-30.458,0-55.402,22.863-58.681,52.361c-3.998,1.999-7.752,4.72-11.109,8.076
				c-17.109,17.105-17.109,44.769,0,61.874c9.033,9.037,20.942,13.35,32.696,12.792v0.082
				c10.711,10.789,25.579,17.507,42.048,17.507c3.326,0,7.038-0.07,10.883-0.258C215.222,225.82,202.29,219.466,192.699,209.805z"/>
		</g>
	</g>
	<g>
		<path fill="#EC87C0" d="M388.716,272.83l-16.059,4.449c0,0,9.766,29.112,2.701,62.674h15.988
			C399.341,303.979,388.716,272.83,388.716,272.83z"/>
	</g>
	<g opacity="0.4">
		<polygon fill="#FFFFFF" points="262.97,228.654 257.431,218.56 252.016,223.748 200.053,275.999 217.709,275.999 		"/>
	</g>
	<g opacity="0.4">
		<polygon fill="#FFFFFF" points="192.059,331.959 232.03,275.999 244.357,275.999 		"/>
	</g>
	<g>
		<g>
			<path fill="#3A3847" d="M174.688,213.767c-12.413,0.004-24.529-5.036-33.5-14.01c-9.029-9.028-14.001-21.016-14.001-33.761
				c0-12.749,4.973-24.736,14.001-33.765c3.65-3.65,7.737-6.621,12.148-8.826c1.967-0.98,4.372-0.188,5.363,1.788
				c0.987,1.975,0.188,4.375-1.788,5.364c-3.642,1.818-7.03,4.286-10.071,7.326c-7.518,7.519-11.66,17.503-11.66,28.113
				c0,10.605,4.142,20.591,11.66,28.108c7.909,7.905,18.764,12.085,29.678,11.625c10.012-0.375,19.423-4.501,26.543-11.625
				c1.561-1.562,4.091-1.562,5.652,0c1.562,1.562,1.562,4.091,0,5.652c-8.548,8.553-19.86,13.51-31.856,13.959
				C176.137,213.751,175.411,213.767,174.688,213.767z"/>
		</g>
		<g>
			<path fill="#3A3847" d="M380.808,202.208c-0.586,0-1.172-0.125-1.733-0.394c-1.991-0.957-2.826-3.345-1.866-5.336
				c1.858-3.876,3.053-7.944,3.537-12.085c0.226-1.784,0.382-3.536,0.382-5.289c0-13.186-6.495-25.489-17.37-32.91
				c-6.636-4.454-14.412-6.819-22.445-6.819c-2.209,0-3.997-1.788-3.997-3.997c0-2.209,1.788-3.997,3.997-3.997
				c9.626,0,18.939,2.834,26.927,8.193c13.084,8.927,20.884,23.702,20.884,39.53c0,2.088-0.172,4.169-0.438,6.257
				c-0.586,4.989-2.022,9.903-4.278,14.583C383.719,201.373,382.29,202.208,380.808,202.208z"/>
		</g>
		<g>
			<path fill="#3A3847" d="M366.013,146.889c-0.352,0-0.71-0.047-1.062-0.145c-2.132-0.59-3.38-2.791-2.795-4.918
				c0.968-3.498,1.46-7.147,1.46-10.848c0-20.84-15.645-37.891-36.396-39.667c-2.194-0.187-3.825-2.123-3.639-4.321
				c0.195-2.202,2.218-3.826,4.325-3.642c24.912,2.131,43.703,22.605,43.703,47.63c0,4.419-0.586,8.787-1.74,12.979
				C369.378,145.729,367.77,146.889,366.013,146.889z"/>
		</g>
		<g>
			<path fill="#3A3847" d="M218.759,231.309c-16.98,0-32.922-6.636-44.886-18.689c-1.554-1.565-1.546-4.095,0.023-5.652
				c1.557-1.554,4.095-1.554,5.652,0.023c10.45,10.527,24.377,16.324,39.21,16.324c6.667,0,26.965,0,38.313-5.801
				c1.237-0.652,2.389-1.312,3.4-2.12c1.732-1.377,4.246-1.093,5.62,0.628c1.382,1.726,1.093,4.239-0.624,5.617
				c-1.397,1.112-2.959,2.045-4.716,2.971C248.999,230.618,231.16,231.309,218.759,231.309z"/>
		</g>
		<g>
			<path fill="#3A3847" d="M332.6,115.231c-2.21,0-3.997-1.788-3.997-3.997c0-7.877-1.577-15.368-4.685-22.262
				c-8.751-19.951-28.526-32.82-50.394-32.82c-17.647,0-33.726,8.064-44.113,22.121c-7.245,9.478-11.051,20.86-11.051,32.961
				c0,2.209-1.788,3.997-3.997,3.997c-2.209,0-3.997-1.788-3.997-3.997c0-13.873,4.376-26.93,12.651-37.763
				c11.698-15.832,30.591-25.313,50.507-25.313c25.037,0,47.692,14.747,57.701,37.567c3.56,7.897,5.371,16.492,5.371,25.509
				C336.597,113.443,334.809,115.231,332.6,115.231z"/>
		</g>
		<g>
			<path fill="#3A3847" d="M306.298,248.815c-20.08,0-38.527-9.235-50.604-25.345c-1.327-1.765-0.968-4.271,0.8-5.594
				c1.757-1.327,4.274-0.968,5.594,0.8c10.555,14.072,26.669,22.145,44.211,22.145c8.455,0,16.934-1.987,24.529-5.742
				c1.951-0.96,4.38-0.18,5.355,1.812c0.976,1.979,0.164,4.376-1.811,5.355C325.683,246.544,315.971,248.815,306.298,248.815z"/>
		</g>
		<g>
			<path fill="#3A3847" d="M159.602,161.198c-1.542,0-3.014-0.897-3.665-2.408c-3.455-7.967-5.207-16.406-5.207-25.092
				c0-2.381,0.167-4.758,0.421-7.139c3.545-31.899,30.479-55.937,62.655-55.937c4.52,0,8.802,0.417,13.092,1.276
				c2.167,0.433,3.567,2.538,3.135,4.704c-0.434,2.17-2.545,3.572-4.704,3.135c-3.767-0.754-7.538-1.121-11.523-1.121
				c-28.097,0-51.616,20.981-54.707,48.805c-0.222,2.081-0.375,4.177-0.375,6.276c0,7.585,1.53,14.955,4.547,21.914
				c0.875,2.026-0.055,4.38-2.081,5.258C160.675,161.093,160.133,161.198,159.602,161.198z"/>
		</g>
		<g>
			<path fill="#3A3847" d="M408.787,209.484c-0.827,0-1.663-0.254-2.373-0.781c-1.78-1.312-2.155-3.814-0.844-5.59
				c5.192-7.026,7.933-15.329,7.933-24.01c0-17.515-11.203-32.75-27.879-37.91c-2.107-0.652-3.295-2.889-2.639-5
				c0.648-2.108,2.896-3.298,4.996-2.635c20.049,6.203,33.516,24.506,33.516,45.545c0,10.403-3.287,20.349-9.493,28.757
				C411.215,208.922,410.013,209.484,408.787,209.484z"/>
		</g>
		<g>
			<path fill="#3A3847" d="M398.388,146.889c-0.351,0-0.71-0.047-1.068-0.145c-2.132-0.594-3.373-2.799-2.779-4.926
				c0.96-3.466,1.451-7.112,1.451-10.84c0-17.479-11.18-32.75-27.823-37.996c-2.108-0.664-3.271-2.912-2.608-5.016
				c0.664-2.104,2.92-3.26,5.013-2.611c19.985,6.304,33.413,24.639,33.413,45.623c0,4.45-0.585,8.822-1.748,12.987
				C401.745,145.733,400.137,146.889,398.388,146.889z"/>
		</g>
		<g>
			<path fill="#3A3847" d="M369.37,281.44c-23.562,0-35.186-20.716-35.318-20.957c-1.063-1.933-0.352-4.353,1.584-5.415
				c1.937-1.072,4.356-0.351,5.426,1.57c0.5,0.909,12.608,22.202,37.841,15.488c2.35-0.563,4.599-1.319,6.776-2.271
				c3.045-1.288,5.66-2.912,7.807-4.833c11.406-10.195,6.145-26.391,5.918-27.078c-0.703-2.088,0.422-4.356,2.506-5.059
				c2.076-0.711,4.349,0.394,5.059,2.486c0.305,0.886,7.245,21.852-8.15,35.607c-2.803,2.521-6.167,4.614-9.984,6.222
				c-2.553,1.117-5.254,2.03-7.971,2.686C376.755,280.965,372.93,281.44,369.37,281.44z"/>
		</g>
		<g>
			<path fill="#3A3847" d="M375.936,343.951c-0.211,0-0.43-0.016-0.64-0.055c-2.187-0.352-3.662-2.396-3.311-4.583
				c5.066-31.509,0.227-45.843,0.18-45.982c-0.727-2.077,0.352-4.356,2.42-5.099c2.084-0.733,4.356,0.328,5.098,2.382
				c0.234,0.64,5.652,16.082,0.188,49.972C379.558,342.546,377.864,343.951,375.936,343.951z"/>
		</g>
		<g>
			<path fill="#3A3847" d="M391.916,343.951c-0.28,0-0.577-0.031-0.866-0.094c-2.154-0.484-3.514-2.623-3.037-4.778
				c7.581-34.108,0.266-53.431,0.188-53.618c-0.804-2.045,0.203-4.371,2.248-5.184c2.038-0.812,4.356,0.188,5.177,2.232
				c0.351,0.859,8.36,21.548,0.194,58.303C395.406,342.678,393.751,343.951,391.916,343.951z"/>
		</g>
		<g>
			<path fill="#3A3847" d="M393.696,272.189c-10.017,0-14.981-7.947-16.262-12.554c-0.594-2.123,0.648-4.329,2.779-4.922
				c2.146-0.582,4.31,0.644,4.91,2.756c0.391,1.308,2.693,7.787,10.438,6.577c2.162-0.27,4.216,1.171,4.543,3.365
				c0.328,2.186-1.179,4.215-3.356,4.543C395.679,272.111,394.664,272.189,393.696,272.189z"/>
		</g>
		<g>
			<path fill="#3A3847" d="M380.081,279.996c-0.266,0-0.688-0.031-0.944-0.078c-15.794-3.185-19.096-15.441-19.229-15.965
				c-0.547-2.139,0.741-4.313,2.881-4.859c2.146-0.563,4.294,0.729,4.855,2.846c0.109,0.394,2.404,7.994,13.069,10.141
				c2.209,0,3.677,1.749,3.677,3.95C384.391,278.248,382.29,279.996,380.081,279.996z"/>
		</g>
		<g>
			<path fill="#3A3847" d="M192.059,335.957c-0.984,0-1.967-0.367-2.732-1.086c-1.464-1.366-1.686-3.614-0.519-5.238l35.455-49.637
				h-24.209c-1.616,0-3.076-0.976-3.693-2.467c-0.62-1.499-0.277-3.217,0.867-4.355l31.977-31.981c1.562-1.562,4.091-1.562,5.652,0
				s1.562,4.091,0,5.652l-25.154,25.157h22.328c1.499,0,2.869,0.828,3.552,2.163c0.687,1.335,0.57,2.935-0.3,4.153l-22.527,31.539
				l56.046-45.85h-20.782c-1.608,0-3.06-0.968-3.685-2.447c-0.624-1.483-0.3-3.193,0.824-4.345l15.993-16.387
				c1.538-1.581,4.075-1.604,5.652-0.07c1.577,1.542,1.608,4.071,0.063,5.652l-9.36,9.599h22.491c1.687,0,3.193,1.062,3.763,2.654
				c0.57,1.589,0.078,3.365-1.233,4.438l-87.937,71.948C193.851,335.652,192.953,335.957,192.059,335.957z"/>
		</g>
		<g>
			<path fill="#3A3847" d="M357.277,249.468c-10.673,0-20.634-3.739-26.724-7.374c-1.896-1.128-2.514-3.575-1.39-5.473
				c1.124-1.893,3.583-2.518,5.48-1.394c1.187,0.703,29.542,17.09,47.481-5.972c13.46-17.265-0.718-42.138-0.866-42.388
				c-1.108-1.909-0.46-4.352,1.452-5.461c1.89-1.105,4.349-0.472,5.465,1.448c0.703,1.206,16.996,29.838,0.258,51.311
				C379.487,245.678,368.02,249.468,357.277,249.468z"/>
		</g>
		<g>
			<path fill="#3A3847" d="M407.905,511.831H184.064c-2.209,0-3.997-1.796-3.997-3.997v-51.416
				c-63.322,7.885-98.652,3.052-112.096-15.599c-10.129-14.053-6.222-33.647-0.507-51.448l-8.217-6.276
				c-1.476-1.124-1.983-3.123-1.222-4.81l4.141-9.228l-7.065-7.003c-0.898-0.89-1.323-2.154-1.144-3.411l5.824-40.394
				l-29.397-14.692c-0.976-0.491-1.709-1.358-2.03-2.396c-0.324-1.038-0.207-2.171,0.324-3.123l51.939-93.632
				c-11.246-50.152-1.788-96.018,27.379-132.729c35.045-44.105,97.684-71.508,163.474-71.508c36.13,0,71.113,8.178,101.17,23.651
				c58.528,30.146,94.369,70.645,106.533,120.359c20.75,84.846-33.266,173.603-57.451,207.828
				c-32.048,45.233-10.126,153.921-9.907,155.014c0.249,1.18-0.055,2.405-0.812,3.334
				C410.247,511.284,409.107,511.831,407.905,511.831z M188.062,503.837h215.011c-4.052-22.234-18.284-113.528,12.124-156.443
				c23.554-33.327,76.188-119.665,56.21-201.313c-11.593-47.368-46.053-86.114-102.419-115.156
				c-28.933-14.888-62.65-22.761-97.516-22.761c-63.408,0-123.65,26.243-157.213,68.486c-27.89,35.104-36.712,79.178-25.509,127.456
				c0.223,0.964,0.078,1.975-0.402,2.842l-50.655,91.317l28.246,14.131c1.542,0.765,2.413,2.436,2.17,4.138l-5.949,41.268
				l7.604,7.525c1.183,1.171,1.515,2.959,0.831,4.481l-3.978,8.86l7.951,6.066c1.358,1.046,1.909,2.826,1.366,4.449
				c-7.83,23.484-8.271,37.536-1.475,46.967c11.636,16.137,46.943,19.932,109.083,11.758c1.155-0.156,2.295,0.195,3.157,0.952
				c0.867,0.765,1.362,1.858,1.362,3.014V503.837z"/>
		</g>
	</g>
</g>
</svg>
